<?xml version="1.0" standalone="no"?><!DOCTYPE svg PUBLIC "-//W3C//DTD SVG 1.1//EN" "http://www.w3.org/Graphics/SVG/1.1/DTD/svg11.dtd"><svg class="icon" height="512" viewBox="0 0 1024 1024" version="1.1" xmlns="http://www.w3.org/2000/svg"><path d="M988.8 896l-96 0 0 96c0 19.232-12.8 32-32 32s-32-12.768-32-32l0-96-96 0c-19.2 0-32-12.768-32-32 0-19.2 12.8-32 32-32l96 0 0-96c0-19.2 12.8-32 32-32s32 12.8 32 32l0 96 96 0c19.2 0 32 12.8 32 32C1020.8 883.232 1008 896 988.8 896M636.8 576l-51.2 0c-44.8 38.4-108.8 64-172.8 64s-121.6-25.6-172.8-64L195.2 576c-70.4 0-128 57.632-128 128l0 128c0 70.4 57.6 128 128 128l409.6 0c17.696 0 32 14.336 32 32 0 17.696-14.304 32-32 32L195.2 1024c-106.016 0-192-85.984-192-192l0-128c0-102.368 83.2-192 185.6-192-32-51.2-57.6-121.6-57.6-192 0-179.2 128-320 288-320s288 140.8 288 320c0 70.4-25.6 140.8-57.6 192 56.352 4.672 109.28 33.536 143.552 76.384C809.824 609.152 794.784 640 768.128 640c-9.664 0-18.816-4.384-24.864-11.936C717.984 596.384 682.496 576 636.8 576L636.8 576zM419.2 64c-121.6 0-224 115.2-224 256 0 140.8 102.4 256 224 256s224-115.2 224-256C643.2 179.2 540.8 64 419.2 64" /></svg>