<?xml version="1.0" standalone="no"?><!DOCTYPE svg PUBLIC "-//W3C//DTD SVG 1.1//EN" "http://www.w3.org/Graphics/SVG/1.1/DTD/svg11.dtd"><svg class="icon" height="512" viewBox="0 0 1024 1024" version="1.1" xmlns="http://www.w3.org/2000/svg"><path d="M735.166709 842.648652c-0.028653-0.028653-0.058328-0.054235-0.086981-0.082888-0.002047-0.002047-0.001023-0.005117-0.00307-0.007163L417.830247 525.311167c-8.953929-8.953929-8.953929-23.470551 0-32.42448l317.246411-317.246411c0.002047-0.002047 0.001023-0.005117 0.00307-0.007163 0.028653-0.028653 0.058328-0.054235 0.086981-0.082888 21.855774-21.855774 21.855774-57.291844 0-79.147618-21.855774-21.855774-57.291844-21.855774-79.147618 0-0.028653 0.028653-0.054235 0.058328-0.082888 0.086981-0.002047 0.002047-0.005117 0.001023-0.007163 0.00307L288.479227 463.943494c-24.938995 24.938995-24.938995 65.372893 0 90.311889L655.92904 921.705196c0.002047 0.002047 0.005117 0.001023 0.007163 0.00307 0.028653 0.028653 0.054235 0.058328 0.082888 0.086981 21.855774 21.855774 57.290821 21.855774 79.147618 0S757.022483 864.504426 735.166709 842.648652z" /></svg>