<?xml version="1.0" standalone="no"?><!DOCTYPE svg PUBLIC "-//W3C//DTD SVG 1.1//EN" "http://www.w3.org/Graphics/SVG/1.1/DTD/svg11.dtd"><svg class="icon" height="512" viewBox="0 0 1162 1024" version="1.1" xmlns="http://www.w3.org/2000/svg"><path d="M1162.430959 974.920266a48.440226 48.440226 0 1 1-96.871777 0 340.05316 340.05316 0 0 0-290.606655-337.077695s-24.211438-13.723574-24.211438-52.916436 24.211438-54.425855 24.211438-54.425855a219.421037 219.421037 0 0 0-24.211438-431.581245v-1.431346a48.743845 48.743845 0 0 1 0-97.487689 47.885037 47.885037 0 0 1 17.592546 3.46993A316.813303 316.813303 0 0 1 907.252291 576.043114 438.581829 438.581829 0 0 1 1162.430959 974.920266zM616.645636 576.043114a438.581829 438.581829 0 0 1 255.178668 398.868477 48.440226 48.440226 0 1 1-96.871777 0 339.046881 339.046881 0 1 0-678.076411 0 48.440226 48.440226 0 1 1-96.871777 0A438.581829 438.581829 0 0 1 255.183007 576.043114a314.826768 314.826768 0 1 1 361.462629 0zM435.914321 97.522389a219.351638 219.351638 0 1 0 217.954992 219.351638A218.657652 218.657652 0 0 0 435.914321 97.522389z" /></svg>