<?xml version="1.0" standalone="no"?><!DOCTYPE svg PUBLIC "-//W3C//DTD SVG 1.1//EN" "http://www.w3.org/Graphics/SVG/1.1/DTD/svg11.dtd"><svg class="icon" height="512" viewBox="0 0 1024 1024" version="1.1" xmlns="http://www.w3.org/2000/svg"><path d="M123.270489 512.35873c0 104.157465 0.342858 208.314931-0.142857 312.472396-0.242858 52.500163 38.571548 99.800309 90.000278 110.186056a126.028962 126.028962 0 0 0 24.742934 2.014292q127.043251 0.200001 254.086501 0.128571c17.51434 0 32.157242 6.257162 40.985842 22.157212 16.485765 29.714378-4.285728 64.471628-38.571548 64.6002-49.071581 0.185715-98.143161 0-147.229028 0h-110.00034c-100.00031-0.085715-183.514854-72.000223-198.186329-170.900529a199.529189 199.529189 0 0 1-2.285721-29.042948C36.413077 616.473338 35.784504 408.986981 36.784507 201.500624 37.184508 119.714656 75.456055 58.800182 148.199138 20.800064A182.957709 182.957709 0 0 1 233.113687 0.228572q132.571839-0.47143 265.257964 0c18.100056 0 32.514386 7.900024 40.228696 25.071506s4.957158 33.328675-7.228594 47.400147c-9.142885 10.485747-21.55721 14.200044-35.12868 14.285759q-82.285969 0.085715-164.571938 0c-32.514386 0-65.014487-0.171429-97.528874 0-52.428734 0.357144-98.671734 38.571548-108.714622 90.000278A133.757557 133.757557 0 0 0 123.37049 202.229198q-0.257144 155.129052-0.142858 310.129532z" fill="" /><path d="M838.172703 555.573149H300.413895c-24.657219 0-42.00013-14.542902-45.414426-37.942974-3.685726-25.285793 16.00005-47.714433 42.728703-48.77158 2.285721-0.085715 4.571443 0 6.857165 0h534.858799c-2.285721-2.485722-3.685726-4.128584-5.214302-5.628589l-100.57174-100.57174c-19.671489-19.785776-17.657198-49.571582 4.171441-66.28592 16.728623-12.857183 41.05727-11.000034 57.257321 5.128588q89.600278 89.143133 178.74341 178.729125c18.857201 18.942916 18.414343 45.457284-0.371429 64.285913l-178.286267 178.286267c-16.228622 16.20005-38.571548 18.485772-56.471603 5.942875a43.000133 43.000133 0 0 1-5.714304-66.028776q50.38587-50.743014 101.028885-101.057456a50.128727 50.128727 0 0 1 5.428588-4.14287l-1.285718-1.900005z" fill="" /></svg>