<?xml version="1.0" standalone="no"?><!DOCTYPE svg PUBLIC "-//W3C//DTD SVG 1.1//EN" "http://www.w3.org/Graphics/SVG/1.1/DTD/svg11.dtd"><svg class="icon" height="512" viewBox="0 0 1024 1024" version="1.1" xmlns="http://www.w3.org/2000/svg"><path d="M128 192.384a32 32 0 0 1-64 0A160.576 160.576 0 0 1 224.576 32h379.392a32 32 0 0 1 0 64H224.576c-53.248 0-96.576 43.2-96.576 96.384zM619.52 928a32 32 0 1 1 0 64H224.512A160.448 160.448 0 0 1 64 831.616V192.384a32 32 0 1 1 64 0v639.232c0 53.248 43.2 96.384 96.576 96.384h394.88zM795.2 689.792a32 32 0 1 0 54.592 33.408l122.432-199.616a32 32 0 0 0-27.264-48.704H427.136a32 32 0 1 0 0 64h460.608l-92.544 150.912z" fill="#FFFFFF" /><path d="M427.136 482.56a32 32 0 1 0 0 64h517.76a32 32 0 0 0 27.328-48.768l-122.432-199.68a32 32 0 1 0-54.592 33.472l92.544 150.912H427.136z" fill="#FFFFFF" /></svg>