<?xml version="1.0" standalone="no"?><!DOCTYPE svg PUBLIC "-//W3C//DTD SVG 1.1//EN" "http://www.w3.org/Graphics/SVG/1.1/DTD/svg11.dtd"><svg class="icon" height="512" viewBox="0 0 1024 1024" version="1.1" xmlns="http://www.w3.org/2000/svg"><path d="M876.4 723.7H324.1c-42.9 0-78 35.1-78 78s35.1 78 78 78h552.2c42.9 0 78-35.1 78-78 0.1-42.9-35-78-77.9-78zM881.3 171.6H329c-42.9 0-78 35.1-78 78s35.1 78 78 78h552.3c42.9 0 78-35.1 78-78-0.1-42.9-35.2-78-78-78zM881.3 447.4h-743c-42.9 0-78 35.1-78 78s35.1 78 78 78h743c42.9 0 78-35.1 78-78-0.1-42.9-35.2-78-78-78z" fill="#313131" /></svg>