<?xml version="1.0" standalone="no"?><!DOCTYPE svg PUBLIC "-//W3C//DTD SVG 1.1//EN" "http://www.w3.org/Graphics/SVG/1.1/DTD/svg11.dtd"><svg class="icon" height="512" viewBox="0 0 1088 1024" version="1.1" xmlns="http://www.w3.org/2000/svg"><path d="M704.736 1024l0 0c-19.712 0-38.912-8.16-51.296-21.824-16.864-18.496-70.336-66.592-114.08-66.592-43.456 0-97.76 48.384-113.344 65.312-12.352 13.44-31.392 21.44-50.944 21.44-9.312 0-18.08-1.792-26.112-5.312l-1.408-0.608-133.024-74.368-1.312-0.928c-24.224-16.96-33.44-50.112-21.44-77.12 0.096-0.192 12.256-28.32 12.256-53.92 0-77.728-63.264-140.992-140.992-140.992l-4.704 0c-0.288 0-0.576 0-0.864 0-22.272 0-40.416-19.776-46.208-50.4-0.448-2.464-11.36-60.512-11.36-106.272s10.88-103.84 11.36-106.272c5.856-31.008 24.384-50.912 47.04-50.4l4.704 0c77.728 0 140.992-63.264 140.992-140.992 0-25.6-12.16-53.696-12.288-53.984-11.968-26.976-2.72-60.128 21.6-77.024l1.376-0.96 140.384-77.12 1.472-0.608c7.904-3.36 16.576-5.088 25.728-5.088 19.488 0 38.56 7.84 51.04 20.992 16.608 17.408 69.12 62.624 111.648 62.624 42.112 0 94.304-44.352 110.848-61.44 12.384-12.864 31.328-20.576 50.624-20.576 9.344 0 18.176 1.76 26.208 5.248l1.408 0.608 135.584 75.328 1.344 0.928c24.256 16.928 33.504 50.08 21.504 77.12-0.096 0.192-12.256 28.32-12.256 53.92 0 77.728 63.264 140.992 140.992 140.992l4.704 0c22.624-0.512 41.184 19.36 47.04 50.4 0.448 2.464 11.36 60.512 11.36 106.272s-10.88 103.84-11.36 106.272c-5.856 31.008-24.416 50.848-47.04 50.4l-4.704 0c-77.728 0-140.992 63.264-140.992 140.992 0 25.6 12.16 53.696 12.288 53.984 11.968 26.976 2.72 60.128-21.536 77.024l-1.344 0.96-137.856 76.192-1.44 0.608c-7.872 3.392-16.512 5.12-25.632 5.12zM700.544 959.04c0.608 0.416 2.368 1.088 4.192 1.088 0.064 0 0.16 0 0.192 0l128.8-71.2c-3.104-7.232-17.312-42.272-17.312-78.848 0-109.344 86.144-198.976 194.112-204.576 1.568-8.576 9.984-56.864 9.984-93.088s-8.448-84.48-9.984-93.088c-107.968-5.6-194.112-95.232-194.112-204.576 0-36.608 14.272-71.712 17.344-78.88l-126.72-70.4c-0.16 0-0.32-0.032-0.544-0.032-2.144 0-4.16 0.8-4.832 1.248-2.112 2.176-20.512 20.8-46.88 39.36-39.04 27.488-76 41.408-109.76 41.408-34.112 0-71.328-14.208-110.656-42.208-26.56-18.912-44.992-37.888-47.136-40.128-0.672-0.448-2.72-1.28-4.896-1.28-0.16 0-0.32 0-0.448 0l-131.264 72.096c3.136 7.328 17.312 42.304 17.312 78.816 0 109.344-86.144 198.976-194.112 204.576-1.568 8.576-9.984 56.864-9.984 93.088s8.448 84.48 9.984 93.088c107.968 5.6 194.112 95.232 194.112 204.576 0 36.704-14.304 71.84-17.376 78.912l124.224 69.472c0.064 0 0.16 0 0.288 0 1.824 0 3.552-0.672 4.16-1.056 2.336-2.496 20.864-22.144 47.616-41.728 39.84-29.184 77.696-44 112.512-44 35.168 0 73.312 15.072 113.376 44.832 26.88 19.968 45.504 39.968 47.808 42.496zM539.84 699.488c-103.52 0-187.776-84.224-187.776-187.776s84.224-187.776 187.776-187.776c103.52 0 187.776 84.224 187.776 187.776s-84.224 187.776-187.776 187.776zM539.84 387.84c-68.32 0-123.904 55.584-123.904 123.904s55.584 123.904 123.904 123.904c68.32 0 123.904-55.584 123.904-123.904s-55.584-123.904-123.904-123.904z" /></svg>