<?xml version="1.0" encoding="UTF-8" standalone="no"?>
<svg
   xmlns:dc="http://purl.org/dc/elements/1.1/"
   xmlns:cc="http://creativecommons.org/ns#"
   xmlns:rdf="http://www.w3.org/1999/02/22-rdf-syntax-ns#"
   xmlns:svg="http://www.w3.org/2000/svg"
   xmlns="http://www.w3.org/2000/svg"
   xmlns:sodipodi="http://sodipodi.sourceforge.net/DTD/sodipodi-0.dtd"
   xmlns:inkscape="http://www.inkscape.org/namespaces/inkscape"
   class="icon"
   height="512"
   viewBox="0 0 1024 1024"
   version="1.1"
   id="svg4"
   sodipodi:docname="next.svg"
   inkscape:version="0.92.2 (5c3e80d, 2017-08-06)">
  <metadata
     id="metadata10">
    <rdf:RDF>
      <cc:Work
         rdf:about="">
        <dc:format>image/svg+xml</dc:format>
        <dc:type
           rdf:resource="http://purl.org/dc/dcmitype/StillImage" />
        <dc:title></dc:title>
      </cc:Work>
    </rdf:RDF>
  </metadata>
  <defs
     id="defs8" />
  <sodipodi:namedview
     pagecolor="#ffffff"
     bordercolor="#666666"
     borderopacity="1"
     objecttolerance="10"
     gridtolerance="10"
     guidetolerance="10"
     inkscape:pageopacity="0"
     inkscape:pageshadow="2"
     inkscape:window-width="640"
     inkscape:window-height="480"
     id="namedview6"
     showgrid="false"
     inkscape:zoom="0.28515625"
     inkscape:cx="512"
     inkscape:cy="256"
     inkscape:window-x="462"
     inkscape:window-y="271"
     inkscape:window-maximized="0"
     inkscape:current-layer="svg4" />
  <path
     d="m 286.16719,842.64865 c 0.0287,-0.0286 0.0583,-0.0542 0.087,-0.0829 0.002,-0.002 0.001,-0.005 0.003,-0.007 L 603.50366,525.31117 c 8.95393,-8.95393 8.95393,-23.47055 0,-32.42448 L 286.25725,175.64028 c -0.002,-0.002 -0.001,-0.005 -0.003,-0.007 -0.0287,-0.0286 -0.0583,-0.0542 -0.087,-0.0829 -21.85577,-21.85577 -21.85577,-57.29184 0,-79.147613 21.85578,-21.855774 57.29185,-21.855774 79.14762,0 0.0287,0.02865 0.0542,0.05833 0.0829,0.08698 0.002,0.002 0.005,0.001 0.007,0.0031 L 732.85468,463.94349 c 24.93899,24.939 24.93899,65.3729 0,90.31189 L 365.40486,921.7052 c -0.002,0.002 -0.005,0.001 -0.007,0.003 -0.0286,0.0287 -0.0542,0.0583 -0.0829,0.087 -21.85577,21.85577 -57.29082,21.85577 -79.14762,0 -21.85679,-21.85578 -21.85577,-57.29082 0,-79.1466 z"
     id="path2"
     inkscape:connector-curvature="0" />
</svg>
